#N canvas 580 526 735 365 10;
#X obj 360 222 sendOSC;
#X msg 297 164 disconnect;
#X floatatom 395 34 5 0 0 0 - - -;
#X floatatom 444 35 5 0 0 0 - - -;
#X floatatom 484 36 5 0 0 0 - - -;
#X msg 463 105 bang;
#X obj 412 140 pack f f f f;
#X msg 403 185 send /datos \$1 \$2 \$3 \$4;
#X obj 255 115 loadbang;
#X msg 255 139 connect localhost 5000;
#X floatatom 529 37 5 0 0 0 - - -;
#X obj 414 79 + 0.1;
#X obj 367 79 + 0.1;
#X obj 488 71 + 0.1;
#X obj 535 76 + 0.1;
#X obj 82 99 readsf~;
#X msg 50 38 open sound22.wav;
#X msg 77 60 1;
#X obj 82 126 dac~;
#X floatatom 133 147 0 0 0 0 - - -;
#X obj 133 128 env~;
#X msg 112 60 0;
#X connect 1 0 0 0;
#X connect 2 0 12 0;
#X connect 3 0 5 0;
#X connect 3 0 11 0;
#X connect 4 0 5 0;
#X connect 4 0 13 0;
#X connect 5 0 6 0;
#X connect 6 0 7 0;
#X connect 7 0 0 0;
#X connect 8 0 9 0;
#X connect 9 0 0 0;
#X connect 10 0 5 0;
#X connect 10 0 14 0;
#X connect 11 0 6 1;
#X connect 12 0 6 0;
#X connect 13 0 6 2;
#X connect 14 0 6 3;
#X connect 15 0 18 0;
#X connect 15 0 18 1;
#X connect 15 0 20 0;
#X connect 16 0 15 0;
#X connect 17 0 15 0;
#X connect 19 0 2 0;
#X connect 19 0 3 0;
#X connect 19 0 4 0;
#X connect 20 0 19 0;
#X connect 21 0 15 0;
